# Blender 3.1.0
# www.blender.org
mtllib tree2.mtl
o Tree Type1 03 Model
v -3.909026 0.009761 -11.949757
v -3.996050 0.009761 -11.899513
v -4.083075 0.009761 -11.949757
v -4.083075 0.009761 -12.050243
v -3.996050 0.009761 -12.100487
v -3.909026 0.009761 -12.050243
v -3.909026 0.695200 -11.949757
v -3.996050 0.695200 -11.899513
v -4.083075 0.695200 -11.949757
v -4.083075 0.695200 -12.050243
v -3.996050 0.695200 -12.100487
v -3.909026 0.695200 -12.050243
v -3.122594 0.535322 -11.495710
v -3.996050 0.535322 -10.991420
v -4.869507 0.535322 -11.495710
v -4.869507 0.535322 -12.504290
v -3.996050 0.535322 -13.008580
v -3.122594 0.535322 -12.504290
v -3.648376 1.224634 -11.787959
v -4.015268 1.241188 -11.575918
v -4.382161 1.257742 -11.787959
v -4.382161 1.257742 -12.212041
v -4.015268 1.241188 -12.424082
v -3.648376 1.224634 -12.212041
v -3.249621 0.935084 -11.550438
v -4.027496 0.970181 -11.100875
v -4.805370 1.005278 -11.550437
v -4.805370 1.005278 -12.449563
v -4.027496 0.970181 -12.899125
v -3.249621 0.935084 -12.449562
v -3.721575 1.896994 -11.847674
v -3.985142 1.908887 -11.695350
v -4.248709 1.920778 -11.847674
v -4.248709 1.920778 -12.152326
v -3.985142 1.908887 -12.304650
v -3.721575 1.896994 -12.152326
v -3.434355 1.634616 -11.669766
v -4.004056 1.685635 -11.339533
v -4.573759 1.736654 -11.669766
v -4.573759 1.736654 -12.330234
v -4.004056 1.685635 -12.660467
v -3.434355 1.634616 -12.330234
v -3.879323 3.078464 -12.000000
vn -0.5000 -0.0000 0.8660
vn -1.0000 -0.0000 -0.0000
vn -0.5000 -0.0000 -0.8660
vn 0.0996 -0.9800 0.1725
vn -0.0000 -1.0000 -0.0000
vn 0.5000 -0.0000 0.8660
vn 1.0000 -0.0000 -0.0000
vn 0.5000 -0.0000 -0.8660
vn -0.4089 0.5754 -0.7083
vn -0.0996 -0.9800 0.1725
vn -0.1992 -0.9800 -0.0000
vn -0.0996 -0.9800 -0.1725
vn 0.0996 -0.9800 -0.1725
vn 0.1992 -0.9800 -0.0000
vn 0.2373 -0.8464 0.4767
vn 0.4003 0.5993 -0.6933
vn 0.7951 0.6065 -0.0000
vn 0.4003 0.5993 0.6933
vn -0.4089 0.5754 0.7083
vn -0.8290 0.5592 -0.0000
vn -0.4164 0.4998 -0.7595
vn -0.3126 -0.8216 0.4767
vn -0.5876 -0.8092 -0.0000
vn -0.3126 -0.8216 -0.4767
vn 0.2373 -0.8464 -0.4767
vn 0.5123 -0.8588 -0.0000
vn 0.2542 -0.8253 0.5043
vn 0.4597 0.4602 -0.7595
vn 0.8978 0.4405 -0.0000
vn 0.4597 0.4602 0.7595
vn -0.4164 0.4998 0.7595
vn -0.8544 0.5195 -0.0000
vn -0.3518 -0.7578 0.5496
vn -0.6745 -0.7383 -0.0000
vn -0.3518 -0.7578 -0.5496
vn 0.2542 -0.8253 -0.5043
vn 0.4929 -0.8701 -0.0000
vn -0.4272 0.4184 -0.8016
vn 0.4947 0.3358 -0.8016
vn 0.9556 0.2945 -0.0000
vn 0.4947 0.3358 0.8016
vn -0.4272 0.4184 0.8016
vn -0.8881 0.4596 -0.0000
vn -0.3951 0.5609 -0.7275
vn 0.4258 0.5839 -0.6912
vn 0.4258 0.5839 0.6912
vn -0.3951 0.5609 0.7275
vn 0.2095 -0.8451 0.4919
vn -0.3647 -0.7799 0.5087
vn -0.3647 -0.7799 -0.5087
vn 0.2095 -0.8451 -0.4919
vt 0.356470 0.852564
vt 0.371094 0.852564
vt 0.356470 0.881811
vt 0.356470 0.852564
vt 0.358429 0.859876
vt 0.356470 0.881811
vt 0.356470 0.852564
vt 0.356470 0.881811
vt 0.358429 0.874499
vt 0.356470 0.852564
vt 0.356470 0.881811
vt 0.371094 0.881811
vt 0.356470 0.852564
vt 0.356470 0.881811
vt 0.383758 0.874499
vt 0.356470 0.852564
vt 0.383758 0.859876
vt 0.356470 0.881811
vt 0.348658 0.379858
vt 0.385717 0.852564
vt 0.385717 0.881811
vt 0.348658 0.350611
vt 0.348658 0.379858
vt 0.348658 0.350611
vt 0.385717 0.852564
vt 0.385717 0.881811
vt 0.348658 0.350611
vt 0.385717 0.881811
vt 0.385717 0.852564
vt 0.348658 0.379858
vt 0.385717 0.881811
vt 0.385717 0.852564
vt 0.348658 0.350611
vt 0.348658 0.379858
vt 0.348658 0.379858
vt 0.348658 0.350611
vt 0.385717 0.881811
vt 0.385717 0.852564
vt 0.385717 0.852564
vt 0.385717 0.881811
vt 0.348658 0.379858
vt 0.348658 0.350611
vt 0.348658 0.350611
vt 0.377905 0.379858
vt 0.377905 0.350611
vt 0.348658 0.379858
vt 0.348658 0.350611
vt 0.377905 0.379858
vt 0.377905 0.350611
vt 0.348658 0.379858
vt 0.348658 0.350611
vt 0.377905 0.379858
vt 0.377905 0.350611
vt 0.348658 0.379858
vt 0.377905 0.350611
vt 0.348658 0.350611
vt 0.377905 0.379858
vt 0.348658 0.379858
vt 0.348658 0.379858
vt 0.377905 0.379858
vt 0.377905 0.350611
vt 0.348658 0.350611
vt 0.348658 0.379858
vt 0.348658 0.350611
vt 0.377905 0.379858
vt 0.377905 0.350611
vt 0.377905 0.379858
vt 0.377905 0.350611
vt 0.348658 0.379858
vt 0.348658 0.350611
vt 0.348658 0.379858
vt 0.348658 0.350611
vt 0.377905 0.379858
vt 0.377905 0.350611
vt 0.377905 0.379858
vt 0.377905 0.350611
vt 0.348658 0.379858
vt 0.348658 0.350611
vt 0.348658 0.379858
vt 0.377905 0.350611
vt 0.348658 0.350611
vt 0.377905 0.379858
vt 0.348658 0.379858
vt 0.348658 0.350611
vt 0.377905 0.379858
vt 0.377905 0.350611
vt 0.348658 0.350611
vt 0.377905 0.379858
vt 0.377905 0.350611
vt 0.348658 0.379858
vt 0.348658 0.350611
vt 0.377905 0.379858
vt 0.377905 0.350611
vt 0.348658 0.379858
vt 0.377905 0.379858
vt 0.377905 0.350611
vt 0.348658 0.379858
vt 0.348658 0.350611
vt 0.348658 0.379858
vt 0.348658 0.350611
vt 0.377905 0.379858
vt 0.377905 0.350611
vt 0.348658 0.350611
vt 0.377905 0.350611
vt 0.377905 0.379858
vt 0.348658 0.379858
vt 0.348658 0.350611
vt 0.377905 0.379858
vt 0.348658 0.379858
vt 0.377905 0.350611
vt 0.348658 0.350611
vt 0.377905 0.379858
vt 0.377905 0.350611
vt 0.348658 0.379858
vt 0.348658 0.379858
vt 0.348658 0.350611
vt 0.377905 0.379858
vt 0.377905 0.350611
vt 0.348658 0.350611
vt 0.377905 0.379858
vt 0.377905 0.350611
vt 0.348658 0.379858
vt 0.348658 0.350611
vt 0.377905 0.379858
vt 0.377905 0.350611
vt 0.348658 0.379858
vt 0.377905 0.350611
vt 0.348658 0.350611
vt 0.377905 0.379858
vt 0.348658 0.379858
vt 0.348658 0.379858
vt 0.377905 0.379858
vt 0.377905 0.350611
vt 0.348658 0.350611
vt 0.348658 0.379858
vt 0.377905 0.379858
vt 0.377905 0.350611
vt 0.348658 0.350611
vt 0.348658 0.350611
vt 0.377905 0.379858
vt 0.377905 0.350611
vt 0.348658 0.350611
vt 0.377905 0.379858
vt 0.377905 0.350611
vt 0.348658 0.350611
vt 0.377905 0.379858
vt 0.377905 0.350611
vt 0.348658 0.350611
vt 0.377905 0.350611
vt 0.377905 0.379858
vt 0.348658 0.350611
vt 0.377905 0.379858
vt 0.377905 0.350611
vt 0.348658 0.350611
vt 0.377905 0.379858
vt 0.377905 0.350611
vt 0.377905 0.350611
s 0
usemtl _trees_normal
f 8/25/1 3/8/1 2/4/1
f 9/29/2 4/11/2 3/7/2
f 10/32/3 5/14/3 4/10/3
f 10/33/4 17/60/4 11/35/4
f 5/15/5 1/2/5 3/9/5
f 7/20/6 2/6/6 1/1/6
f 12/39/7 1/3/7 6/16/7
f 11/38/8 6/18/8 5/13/8
f 16/56/9 23/85/9 17/59/9
f 17/61/10 12/41/10 11/36/10
f 12/42/11 13/44/11 7/19/11
f 7/22/12 14/48/12 8/23/12
f 14/49/13 9/30/13 8/24/13
f 15/53/14 10/34/14 9/27/14
f 22/81/15 29/108/15 23/83/15
f 17/62/16 24/88/16 18/63/16
f 24/89/17 13/46/17 18/64/17
f 19/68/18 14/50/18 13/43/18
f 20/74/19 15/54/19 14/47/19
f 21/76/20 16/58/20 15/51/20
f 34/127/21 29/109/21 28/103/21
f 29/110/22 24/90/22 23/84/22
f 30/113/23 19/69/23 24/87/23
f 19/70/24 26/95/24 20/71/24
f 26/96/25 21/77/25 20/72/25
f 21/78/26 28/105/26 22/79/26
f 34/128/27 41/152/27 35/131/27
f 35/133/28 30/114/28 29/107/28
f 36/137/29 25/94/29 30/111/29
f 31/118/30 26/97/30 25/91/30
f 26/98/31 33/124/31 27/99/31
f 33/125/32 28/106/32 27/100/32
f 35/134/33 42/155/33 36/135/33
f 36/138/34 37/140/34 31/115/34
f 37/141/35 32/122/35 31/116/35
f 38/144/36 33/126/36 32/119/36
f 39/147/37 34/130/37 33/123/37
f 40/148/38 43/157/38 41/152/38
f 41/151/39 43/157/39 42/155/39
f 42/154/40 43/157/40 37/140/40
f 37/139/41 43/157/41 38/143/41
f 38/142/42 43/157/42 39/146/42
f 39/145/43 43/157/43 40/150/43
f 8/25/1 9/28/1 3/8/1
f 9/29/2 10/31/2 4/11/2
f 10/32/3 11/37/3 5/14/3
f 10/33/4 16/55/4 17/60/4
f 3/9/5 4/12/5 5/15/5
f 5/15/5 6/17/5 1/2/5
f 1/2/5 2/5/5 3/9/5
f 7/20/6 8/26/6 2/6/6
f 12/39/7 7/21/7 1/3/7
f 11/38/8 12/40/8 6/18/8
f 16/56/44 22/80/44 23/85/44
f 17/61/10 18/65/10 12/41/10
f 12/42/11 18/66/11 13/44/11
f 7/22/12 13/45/12 14/48/12
f 14/49/13 15/52/13 9/30/13
f 15/53/14 16/57/14 10/34/14
f 22/81/15 28/104/15 29/108/15
f 17/62/45 23/86/45 24/88/45
f 24/89/17 19/67/17 13/46/17
f 19/68/46 20/73/46 14/50/46
f 20/74/47 21/75/47 15/54/47
f 21/76/20 22/82/20 16/58/20
f 34/127/21 35/132/21 29/109/21
f 29/110/22 30/112/22 24/90/22
f 30/113/23 25/92/23 19/69/23
f 19/70/24 25/93/24 26/95/24
f 26/96/25 27/101/25 21/77/25
f 21/78/26 27/102/26 28/105/26
f 34/128/48 40/149/48 41/152/48
f 35/133/28 36/136/28 30/114/28
f 36/137/29 31/117/29 25/94/29
f 31/118/30 32/120/30 26/97/30
f 26/98/31 32/121/31 33/124/31
f 33/125/32 34/129/32 28/106/32
f 35/134/49 41/153/49 42/155/49
f 36/138/34 42/156/34 37/140/34
f 37/141/50 38/143/50 32/122/50
f 38/144/51 39/146/51 33/126/51
f 39/147/37 40/150/37 34/130/37
