# Blender 3.1.0
# www.blender.org
mtllib tree1.mtl
o Tree Type1 02 Model
v -8.000000 -0.003508 -12.058417
v -8.050591 -0.003508 -12.029209
v -8.050591 -0.003508 -11.970791
v -8.000000 -0.003508 -11.941583
v -7.949409 -0.003508 -11.970791
v -7.949409 -0.003508 -12.029209
v -8.000000 0.554640 -12.058417
v -8.050591 0.554640 -12.029209
v -8.050591 0.554640 -11.970791
v -8.000000 0.554640 -11.941583
v -7.949409 0.554640 -11.970791
v -7.949409 0.554640 -12.029209
v -8.000000 0.396282 -12.632252
v -8.547546 0.396282 -12.316126
v -8.547546 0.396282 -11.683874
v -8.000000 0.396282 -11.367748
v -7.452454 0.396282 -11.683874
v -7.452454 0.396282 -12.316126
v -8.002924 1.381806 -12.235790
v -8.206503 1.365884 -12.117895
v -8.206503 1.365884 -11.882105
v -8.002924 1.381806 -11.764210
v -7.799345 1.397728 -11.882105
v -7.799345 1.397728 -12.117895
v -7.984224 1.142707 -12.484120
v -8.402208 1.110017 -12.242060
v -8.402208 1.110017 -11.757939
v -7.984224 1.142707 -11.515880
v -7.566240 1.175397 -11.757940
v -7.566240 1.175397 -12.242060
v -8.077109 2.330365 -12.000000
vn 0.4654 -0.0000 -0.8061
vn 0.9308 -0.0000 -0.0000
vn 0.4654 -0.0000 0.8061
vn -0.4654 -0.0000 0.8061
vn -0.9308 -0.0000 -0.0000
vn -0.4654 -0.0000 -0.8061
vn -0.1413 -0.8869 0.2448
vn -0.2826 -0.8869 -0.0000
vn -0.1413 -0.8869 -0.2448
vn 0.1413 -0.8869 -0.2448
vn 0.2826 -0.8869 -0.0000
vn 0.1413 -0.8869 0.2448
vn 0.4240 0.2998 -0.7726
vn 0.8796 0.3047 -0.0000
vn 0.4393 0.3074 0.7609
vn -0.4389 0.3098 0.7602
vn -0.8781 0.3089 -0.0000
vn -0.4589 0.3011 -0.7518
vn -0.2970 -0.6466 0.6002
vn -0.6425 -0.6736 -0.0000
vn -0.2970 -0.6466 -0.6002
vn 0.3939 -0.5925 -0.6002
vn 0.7394 -0.5655 -0.0000
vn 0.3939 -0.5925 0.6002
vn -0.0000 -0.9308 -0.0000
vn 0.4136 0.3423 -0.7604
vn 0.8513 0.3765 -0.0000
vn 0.4136 0.3423 0.7604
vn -0.4618 0.2738 0.7604
vn -0.8995 0.2396 -0.0000
vn -0.4618 0.2738 -0.7604
vn 0.4393 0.3074 -0.7609
vn 0.4240 0.2998 0.7726
vn -0.4589 0.3011 0.7518
vn -0.4389 0.3098 -0.7602
vt 0.354542 0.850636
vt 0.391552 0.850636
vt 0.389073 0.878393
vt 0.354542 0.850636
vt 0.391552 0.850636
vt 0.373047 0.887645
vt 0.354542 0.850636
vt 0.391552 0.850636
vt 0.357021 0.878393
vt 0.354542 0.850636
vt 0.391552 0.850636
vt 0.357021 0.859888
vt 0.354542 0.850636
vt 0.391552 0.850636
vt 0.373047 0.850636
vt 0.354542 0.850636
vt 0.391552 0.850636
vt 0.389073 0.859888
vt 0.874073 0.348683
vt 0.391552 0.887645
vt 0.354542 0.887645
vt 0.911083 0.348683
vt 0.874073 0.348683
vt 0.354542 0.887645
vt 0.391552 0.887645
vt 0.911083 0.348683
vt 0.874073 0.348683
vt 0.354542 0.887645
vt 0.391552 0.887645
vt 0.911083 0.348683
vt 0.354542 0.887645
vt 0.391552 0.887645
vt 0.874073 0.348683
vt 0.911083 0.348683
vt 0.874073 0.348683
vt 0.354542 0.887645
vt 0.391552 0.887645
vt 0.911083 0.348683
vt 0.874073 0.348683
vt 0.354542 0.887645
vt 0.391552 0.887645
vt 0.911083 0.348683
vt 0.911083 0.385692
vt 0.874073 0.385692
vt 0.911083 0.348683
vt 0.874073 0.348683
vt 0.874073 0.348683
vt 0.874073 0.385692
vt 0.911083 0.385692
vt 0.911083 0.348683
vt 0.874073 0.348683
vt 0.874073 0.385692
vt 0.911083 0.385692
vt 0.911083 0.348683
vt 0.874073 0.385692
vt 0.874073 0.348683
vt 0.911083 0.385692
vt 0.911083 0.348683
vt 0.874073 0.348683
vt 0.874073 0.385692
vt 0.911083 0.385692
vt 0.911083 0.348683
vt 0.874073 0.385692
vt 0.911083 0.385692
vt 0.874073 0.348683
vt 0.911083 0.348683
vt 0.874073 0.385692
vt 0.874073 0.348683
vt 0.911083 0.385692
vt 0.911083 0.348683
vt 0.874073 0.348683
vt 0.874073 0.385692
vt 0.911083 0.385692
vt 0.911083 0.348683
vt 0.874073 0.385692
vt 0.911083 0.385692
vt 0.874073 0.348683
vt 0.911083 0.348683
vt 0.874073 0.348683
vt 0.874073 0.385692
vt 0.911083 0.385692
vt 0.911083 0.348683
vt 0.874073 0.348683
vt 0.874073 0.385692
vt 0.911083 0.385692
vt 0.911083 0.348683
vt 0.874073 0.385692
vt 0.911083 0.385692
vt 0.874073 0.348683
vt 0.911083 0.348683
vt 0.911083 0.348683
vt 0.874073 0.348683
vt 0.911083 0.385692
vt 0.874073 0.385692
vt 0.874073 0.348683
vt 0.911083 0.348683
vt 0.874073 0.385692
vt 0.911083 0.385692
vt 0.874073 0.385692
vt 0.874073 0.348683
vt 0.911083 0.348683
vt 0.911083 0.385692
vt 0.874073 0.348683
vt 0.911083 0.348683
vt 0.874073 0.385692
vt 0.911083 0.385692
vt 0.874073 0.348683
vt 0.911083 0.348683
vt 0.874073 0.385692
vt 0.911083 0.385692
vt 0.874073 0.385692
vt 0.874073 0.348683
vt 0.911083 0.348683
vt 0.911083 0.385692
vt 0.911083 0.385692
s 0
usemtl _trees_normal
f 1/2/1 12/40/1 6/16/1
f 6/17/2 11/36/2 5/13/2
f 5/14/3 10/31/3 4/10/3
f 4/11/4 9/28/4 3/7/4
f 3/8/5 8/24/5 2/4/5
f 2/5/6 7/21/6 1/1/6
f 7/22/7 18/63/7 12/39/7
f 12/42/8 17/60/8 11/35/8
f 10/33/9 17/61/9 16/55/9
f 10/34/10 15/52/10 9/27/10
f 9/30/11 14/48/11 8/23/11
f 8/26/12 13/44/12 7/19/12
f 18/65/13 19/69/13 24/87/13
f 18/66/14 23/84/14 17/59/14
f 17/62/15 22/80/15 16/56/15
f 16/58/16 21/75/16 15/51/16
f 15/54/17 20/72/17 14/47/17
f 13/46/18 20/73/18 19/67/18
f 24/89/19 25/93/19 30/111/19
f 24/90/20 29/109/20 23/83/20
f 23/86/21 28/105/21 22/79/21
f 21/77/22 28/106/22 27/99/22
f 21/78/23 26/97/23 20/71/23
f 20/74/24 25/94/24 19/68/24
f 1/3/25 5/15/25 3/9/25
f 30/112/26 25/91/26 31/115/26
f 29/107/27 30/113/27 31/115/27
f 28/103/28 29/108/28 31/115/28
f 27/100/29 28/104/29 31/115/29
f 26/95/30 27/101/30 31/115/30
f 25/92/31 26/96/31 31/115/31
f 1/2/1 7/20/1 12/40/1
f 6/17/2 12/41/2 11/36/2
f 5/14/3 11/37/3 10/31/3
f 4/11/4 10/32/4 9/28/4
f 3/8/5 9/29/5 8/24/5
f 2/5/6 8/25/6 7/21/6
f 7/22/7 13/43/7 18/63/7
f 12/42/8 18/64/8 17/60/8
f 10/33/9 11/38/9 17/61/9
f 10/34/10 16/57/10 15/52/10
f 9/30/11 15/53/11 14/48/11
f 8/26/12 14/49/12 13/44/12
f 18/65/32 13/45/32 19/69/32
f 18/66/14 24/88/14 23/84/14
f 17/62/33 23/85/33 22/80/33
f 16/58/34 22/81/34 21/75/34
f 15/54/17 21/76/17 20/72/17
f 13/46/35 14/50/35 20/73/35
f 24/89/19 19/70/19 25/93/19
f 24/90/20 30/114/20 29/109/20
f 23/86/21 29/110/21 28/105/21
f 21/77/22 22/82/22 28/106/22
f 21/78/23 27/102/23 26/97/23
f 20/74/24 26/98/24 25/94/24
f 3/9/25 2/6/25 1/3/25
f 1/3/25 6/18/25 5/15/25
f 5/15/25 4/12/25 3/9/25
